PathFileType	4	(X/Y/Z)	s02c0402.trc
DataRate	CameraRate	NumFrames	NumMarkers	Units	OrigDataRate	OrigDataStartFrame	OrigNumFrames
200	200	4	50	mm	200	500	2000
Frame#	Time	racr			lacr			c7			jug			rlel			rdr			llel			ldr			s2			lic			ric			lasi			rasi			rpsi			lpsi			rgt			lgt			rth1			rth2			rth3			rth4			rlfc			rmfc			rsh1			rsh2			rsh3			rsh4			rlmal			rmmal			rtoe			rmt5			rmt1			lth1			lth2			lth4			lth3			llfc			lmfc			lsh1			lsh2			lsh3			lsh4			llmal			lmmal			lcal			ltoe			lmt5			SBIKE			LBIKE			RBIKE			
		X1	Y1	Z1	X2	Y2	Z2	X3	Y3	Z3	X4	Y4	Z4	X5	Y5	Z5	X6	Y6	Z6	X7	Y7	Z7	X8	Y8	Z8	X9	Y9	Z9	X10	Y10	Z10	X11	Y11	Z11	X12	Y12	Z12	X13	Y13	Z13	X14	Y14	Z14	X15	Y15	Z15	X16	Y16	Z16	X17	Y17	Z17	X18	Y18	Z18	X19	Y19	Z19	X20	Y20	Z20	X21	Y21	Z21	X22	Y22	Z22	X23	Y23	Z23	X24	Y24	Z24	X25	Y25	Z25	X26	Y26	Z26	X27	Y27	Z27	X28	Y28	Z28	X29	Y29	Z29	X30	Y30	Z30	X31	Y31	Z31	X32	Y32	Z32	X33	Y33	Z33	X34	Y34	Z34	X35	Y35	Z35	X36	Y36	Z36	X37	Y37	Z37	X38	Y38	Z38	X39	Y39	Z39	X40	Y40	Z40	X41	Y41	Z41	X42	Y42	Z42	X43	Y43	Z43	X44	Y44	Z44	X45	Y45	Z45	X46	Y46	Z46	X47	Y47	Z47	X48	Y48	Z48	X49	Y49	Z49	X50	Y50	Z50	
500	2.5000	605.589003	1179.940274	-95.368062	650.231712	1229.846125	-432.725626	631.404341	1239.498868	-268.871484	557.951632	1120.466738	-278.224077	517.603811	945.729183	-32.898253	689.852119	884.112385	-118.142044	531.636912	1008.310490	-588.289257	690.260462	878.256414	-516.838477	80.989117	1129.367780	-330.347532	230.588839	1109.956158	-460.159839	207.257352	1098.675994	-173.355401	262.730329	1067.695499	-433.530254	255.964091	1060.682507	-197.597644	113.720896	1162.995401	-278.257421	127.701642	1177.850296	-363.461534	163.747782	1021.937478	-144.036630	166.488733	1043.867730	-506.867291	228.885816	950.796905	-133.502562	293.287086	890.371723	-136.856116	321.897592	812.059655	-116.545237	319.866134	905.697689	-159.669874	372.586217	682.136298	-152.637556	363.589711	665.285381	-258.501776	361.950430	572.273872	-133.292598	370.097609	485.044736	-151.065287	336.514984	405.418705	-148.267267	381.959974	486.622916	-188.634682	303.391012	288.160232	-159.048083	312.804881	303.669826	-239.344986	520.851094	235.035782	-189.585536	410.525809	217.131978	-133.880140	440.457487	234.228050	-240.964476	285.616195	975.340824	-512.825227	365.786146	941.495476	-508.554787	383.941327	964.765288	-486.750227	418.317972	869.281813	-512.269105	482.918971	792.338383	-486.806575	471.497866	762.639574	-379.891188	412.026806	717.021745	-504.234376	350.925539	658.319251	-486.908826	264.693971	631.890053	-493.909336	362.065120	645.111563	-450.155475	161.983260	590.229761	-483.854769	177.250315	576.652163	-405.124915	79.669626	592.297693	-440.148249	275.118392	382.073251	-443.080352	184.009274	439.135639	-502.599854	-164.837243	857.570574	-314.753185	32.610434	82.522925	-515.288688	32.107985	82.803240	-115.018251	
501	2.5050	604.565771	1180.961791	-95.774451	648.884186	1231.108869	-433.114761	630.176663	1240.645794	-269.242162	557.061115	1121.417232	-278.688570	517.416067	946.212106	-33.337534	689.858564	884.069839	-118.226147	531.913063	1008.610415	-588.608680	690.363810	878.263933	-516.966213	79.944416	1129.014055	-330.479955	229.522390	1110.117971	-460.348701	206.515270	1098.669156	-173.477240	261.633703	1068.162506	-433.853721	255.346898	1060.851222	-197.854301	112.886862	1162.836223	-278.317973	126.372297	1177.879981	-363.474022	162.771373	1021.690401	-144.311051	165.514680	1044.078369	-507.086825	227.882854	950.156983	-133.513813	291.871599	889.382054	-136.937646	320.095820	810.815185	-116.586273	318.575784	904.490379	-159.697041	370.012108	680.863510	-152.670705	361.196708	663.903211	-258.406603	359.527782	571.023640	-133.199897	367.948922	483.748052	-150.897043	334.684307	404.172111	-148.097745	379.887998	485.409935	-188.509107	302.070935	286.692470	-158.879457	311.448405	302.268163	-239.203224	519.318194	232.205939	-189.575249	408.867090	214.988047	-133.833870	438.928098	232.106172	-240.847410	284.967927	976.217988	-513.125887	365.393397	942.979727	-508.813506	383.431099	966.354373	-486.844721	418.498413	871.137882	-512.445185	483.690022	794.741246	-486.939483	472.404249	765.076483	-379.964788	412.810612	719.317300	-504.254346	351.782285	660.627216	-486.850290	265.588495	634.125154	-493.894869	362.973394	647.357165	-450.353541	162.824979	592.408539	-483.663887	178.599162	579.088406	-404.893831	80.417392	594.021743	-439.989894	277.023234	384.724468	-442.753312	185.815365	441.591089	-502.599086	-168.331162	853.845547	-322.345567	32.596164	82.528511	-515.281829	32.074034	82.820989	-115.019661	
502	2.5100	603.521532	1181.988862	-96.127576	647.535598	1232.425195	-433.656855	628.962783	1241.780480	-269.768944	556.128456	1122.378190	-279.081261	517.196071	946.656874	-33.792895	689.894524	883.985320	-118.353623	532.196526	1008.907295	-588.881753	690.470442	878.270452	-517.081640	78.823840	1128.531011	-330.633427	228.304129	1110.520544	-460.548206	205.811443	1098.672297	-173.648562	260.562327	1068.569842	-434.052934	254.761927	1060.949179	-198.090535	112.051165	1162.732519	-278.463098	125.601223	1178.125035	-363.405806	161.935072	1021.396530	-144.552704	164.520028	1044.276179	-507.307902	226.849716	949.545312	-133.526179	290.471066	888.416758	-137.009228	318.359377	809.732464	-116.656921	317.252225	903.443463	-159.770505	367.164573	679.780792	-152.482560	360.576361	661.400318	-257.451887	357.149355	569.827801	-133.121061	365.864076	482.497789	-150.705542	332.786195	402.864803	-147.964213	377.831777	484.219541	-188.348848	300.604072	285.303038	-158.768925	310.138694	300.794447	-239.042533	517.772062	229.404343	-189.557074	407.124603	212.930422	-133.842432	437.340637	229.806081	-240.691142	284.287694	977.082784	-513.431318	364.965320	944.475635	-509.026620	382.872742	967.976685	-486.905785	418.639945	873.038817	-512.628236	484.386466	797.198175	-487.218285	473.239905	767.488189	-380.060533	413.588469	721.625181	-504.335462	352.652780	662.968693	-486.814152	266.635153	636.029346	-492.737394	363.831748	649.671425	-450.347259	163.734688	594.560494	-483.491955	180.161949	581.589539	-404.129474	81.309588	595.565275	-439.661205	278.952889	387.343649	-442.398557	187.643696	444.034209	-502.571896	-164.895988	857.513863	-314.769508	32.605215	82.519383	-515.283180	32.064053	82.825679	-115.039020	
503	2.5150	602.620829	1182.887228	-96.835832	646.148668	1233.674246	-434.124786	627.702008	1242.954878	-270.230067	555.155606	1123.311637	-279.585958	517.060733	947.122389	-34.241483	689.901640	883.877778	-118.505399	532.490578	1009.201236	-589.178764	690.562122	878.292015	-517.163055	77.644333	1127.927182	-330.733334	227.169292	1110.700293	-460.662130	205.126970	1098.693007	-173.805764	259.528131	1068.981831	-434.387171	254.135463	1061.017688	-198.315067	112.525342	1161.776610	-279.554725	125.207976	1177.376215	-364.307801	161.076229	1021.115536	-144.847667	163.425359	1044.442124	-507.483940	225.873983	948.980816	-133.569502	289.161252	887.653398	-136.848732	316.510771	808.666470	-116.742430	316.003293	902.574295	-159.500337	364.579931	678.480004	-152.566984	358.120451	660.214920	-257.539735	354.781196	568.621362	-133.016863	363.788393	481.461238	-150.617013	330.851586	401.499890	-147.901353	375.752065	483.066963	-188.222117	299.154627	283.968707	-158.656184	308.737801	299.357447	-238.881548	516.111154	226.649127	-189.549138	405.406344	210.850685	-133.752440	435.695925	227.408679	-240.602112	283.599584	977.990949	-513.648885	364.520097	945.990380	-509.212172	382.267156	969.553286	-486.920766	418.775888	874.984159	-512.791755	485.057957	799.691785	-487.421164	474.003061	769.907345	-380.148332	414.361424	723.882901	-504.377463	353.464390	665.237958	-486.847253	267.280539	638.531105	-493.704136	364.685208	652.015984	-450.383233	164.554234	596.630588	-483.298659	181.053235	583.611573	-403.962163	82.368606	597.244346	-439.380789	280.951104	389.988800	-442.123702	189.470731	446.313456	-502.536329	-164.924147	857.596681	-314.580362	32.602334	82.490246	-515.264242	32.062396	82.800205	-115.031346	
